<?xml version="1.0" encoding="utf-8"?>
<!-- Generator: Adobe Illustrator 23.0.1, SVG Export Plug-In . SVG Version: 6.00 Build 0)  -->
<svg version="1.1" id="Layer_1" xmlns="http://www.w3.org/2000/svg" xmlns:xlink="http://www.w3.org/1999/xlink" x="0px" y="0px"
	 viewBox="0 0 1000 1000" style="enable-background:new 0 0 1000 1000;" xml:space="preserve">
<style type="text/css">
	.st0{fill:#FFC727;}
	.st1{fill:#FFFFFF;}
</style>
<circle class="st0" cx="500" cy="500" r="468.44"/>
<path class="st1" d="M219.95,519.36c18.62,16.48,36.25,33.7,53.69,51.07c17.6,17.24,34.12,35.3,51.24,52.91
	c33.58,35.71,65.82,72.42,97.5,109.56l-61.77,3.93c55.69-101.87,118.93-198.98,187.4-292.79c34.36-46.83,70.43-92.58,108.69-136.94
	c38.41-44.28,78.48-87.5,123.34-127.7c-19.92,55.93-44.62,108.85-70.99,160.71c-26.52,51.77-55.23,102.16-85.65,151.47
	c-61.09,98.47-127.41,193.63-201.28,284.04l-36.77,45l-25.01-41.07c-25.46-41.82-50.35-84.06-73.91-127.3
	c-11.45-21.87-23.5-43.28-34.47-65.52C240.84,564.61,229.9,542.35,219.95,519.36z"/>
</svg>
