<?xml version="1.0" encoding="utf-8"?>
<!-- Generator: Adobe Illustrator 23.0.1, SVG Export Plug-In . SVG Version: 6.00 Build 0)  -->
<svg version="1.1" id="Layer_1" xmlns="http://www.w3.org/2000/svg" xmlns:xlink="http://www.w3.org/1999/xlink" x="0px" y="0px"
	 viewBox="0 0 2160 2160" style="enable-background:new 0 0 2160 2160;" xml:space="preserve">
<style type="text/css">
	.st0{fill:#EBEBEB;}
	.st1{fill:#263238;}
	.st2{fill:#DBDBDB;}
	.st3{fill:#FFC727;}
	.st4{opacity:0.1;}
	.st5{fill:#FFFFFF;}
	.st6{fill:#C7C7C7;}
	.st7{fill:#A6A6A6;}
	.st8{fill:#774442;}
	.st9{fill:#DD6A57;}
	.st10{fill:#37474F;}
	.st11{fill:#455A64;}
</style>
<g>
	<path class="st0" d="M138.84,193.02h797.63v1042.47H138.84V193.02z M915.43,214.06H159.87v1000.4h755.57V214.06z"/>
	<rect x="535.33" y="219.55" class="st0" width="21.03" height="1005.43"/>
	<g>
		<g>
			
				<rect x="119.77" y="235.54" transform="matrix(-1 -1.224647e-16 1.224647e-16 -1 1075.3022 500.3748)" class="st0" width="835.77" height="29.29"/>
			
				<rect x="119.77" y="268.49" transform="matrix(-1 -1.224647e-16 1.224647e-16 -1 1075.3022 566.2734)" class="st0" width="835.77" height="29.29"/>
			
				<rect x="119.77" y="301.44" transform="matrix(-1 -1.224647e-16 1.224647e-16 -1 1075.3022 632.1725)" class="st0" width="835.77" height="29.29"/>
			
				<rect x="119.77" y="334.39" transform="matrix(-1 -1.224647e-16 1.224647e-16 -1 1075.3022 698.0712)" class="st0" width="835.77" height="29.29"/>
			
				<rect x="119.77" y="367.34" transform="matrix(-1 -1.224647e-16 1.224647e-16 -1 1075.3022 763.9702)" class="st0" width="835.77" height="29.29"/>
			
				<rect x="119.77" y="400.29" transform="matrix(-1 -1.224647e-16 1.224647e-16 -1 1075.3022 829.8688)" class="st0" width="835.77" height="29.29"/>
			
				<rect x="119.77" y="433.24" transform="matrix(-1 -1.224647e-16 1.224647e-16 -1 1075.3022 895.7675)" class="st0" width="835.77" height="29.29"/>
			
				<rect x="119.77" y="466.19" transform="matrix(-1 -1.224647e-16 1.224647e-16 -1 1075.3022 961.6666)" class="st0" width="835.77" height="29.29"/>
			
				<rect x="119.77" y="499.14" transform="matrix(-1 -1.224647e-16 1.224647e-16 -1 1075.3022 1027.5652)" class="st0" width="835.77" height="29.29"/>
		</g>
		<g>
			<g>
				<rect x="182.24" y="229.6" class="st1" width="5.26" height="675.08"/>
				<polygon class="st1" points="175.52,929.18 194.19,929.18 189.51,902.36 180.2,902.36 				"/>
			</g>
			<g>
				<rect x="163.28" y="229.6" class="st1" width="5.26" height="976.61"/>
				<polygon class="st1" points="156.58,1225.93 175.25,1225.93 170.57,1199.11 161.26,1199.11 				"/>
			</g>
		</g>
		
			<rect x="87.13" y="188.91" transform="matrix(-1 -1.224647e-16 1.224647e-16 -1 1075.3022 439.1018)" class="st2" width="901.05" height="61.27"/>
	</g>
</g>
<g>
	
		<rect x="1875.19" y="1420.34" transform="matrix(-1 -1.224647e-16 1.224647e-16 -1 3878.4739 2894.8047)" class="st0" width="128.1" height="54.13"/>
	
		<rect x="1946.65" y="1488.59" transform="matrix(-1 -1.224647e-16 1.224647e-16 -1 4021.3906 3031.3176)" class="st0" width="128.1" height="54.13"/>
	
		<rect x="1803.73" y="1488.59" transform="matrix(-1 -1.224647e-16 1.224647e-16 -1 3735.5566 3031.3176)" class="st0" width="128.1" height="54.13"/>
	
		<rect x="152.71" y="1488.59" transform="matrix(-1 -1.224647e-16 1.224647e-16 -1 433.5261 3031.3176)" class="st0" width="128.1" height="54.13"/>
	
		<rect x="152.71" y="27.88" transform="matrix(-1 -1.224647e-16 1.224647e-16 -1 433.5261 109.8956)" class="st0" width="128.1" height="54.13"/>
	
		<rect x="81.25" y="96.14" transform="matrix(-1 -1.224647e-16 1.224647e-16 -1 290.6093 246.4085)" class="st0" width="128.1" height="54.13"/>
	
		<rect x="1946.65" y="27.94" transform="matrix(-1 -1.224647e-16 1.224647e-16 -1 4021.3906 110.0117)" class="st0" width="128.1" height="54.13"/>
	<rect x="1125.08" y="445.15" class="st0" width="128.1" height="54.13"/>
	<rect x="1053.62" y="376.9" class="st0" width="128.1" height="54.13"/>
</g>
<polygon class="st1" points="46.21,1833.89 304.16,1832.72 562.1,1832.29 1078,1831.48 1593.9,1832.29 1851.84,1832.71 
	2109.79,1833.89 1851.84,1835.08 1593.9,1835.5 1078,1836.31 562.1,1835.5 304.16,1835.07 "/>
<ellipse class="st0" cx="653.13" cy="2038.01" rx="606.93" ry="94.28"/>
<ellipse class="st0" cx="1855.25" cy="2038.01" rx="237.99" ry="60.67"/>
<g>
	<g>
		<g>
			<polygon class="st3" points="1833.82,1929.26 616.96,1929.26 729.99,312.95 1946.84,312.95 			"/>
		</g>
		<g class="st4">
			<polygon points="1833.82,1929.26 616.96,1929.26 729.99,312.95 1946.84,312.95 			"/>
		</g>
	</g>
	<g>
		<polygon class="st3" points="1804.01,1929.26 587.16,1929.26 700.18,312.95 1917.04,312.95 		"/>
	</g>
	<g>
		<g>
			<polygon class="st0" points="1748.62,1833.57 673.51,1847.24 756.8,391.15 1831.9,377.48 			"/>
		</g>
		<g>
			<polygon class="st2" points="1722.28,1851.88 649.92,1828.7 783.14,372.84 1855.5,396.02 			"/>
		</g>
		<g>
			<polygon class="st5" points="1738.91,1840.46 664.68,1840.46 766.51,384.26 1840.74,384.26 			"/>
		</g>
		<g>
			<g>
				<polygon class="st0" points="990.52,843.54 883.28,843.54 890.78,736.3 998.02,736.3 				"/>
				<g>
					<polygon class="st1" points="1402.31,752.02 1054.84,752.02 1055.94,736.3 1403.41,736.3 					"/>
					<polygon class="st0" points="1664,782.53 1052.7,782.53 1053.8,766.81 1665.1,766.81 					"/>
					<polygon class="st0" points="1661.87,813.03 1050.57,813.03 1051.67,797.32 1662.97,797.32 					"/>
					<polygon class="st0" points="1659.73,843.54 1048.44,843.54 1049.54,827.83 1660.83,827.83 					"/>
				</g>
				<path class="st3" d="M895.33,784.36c3.72,3.3,7.25,6.74,10.74,10.22c3.52,3.45,6.83,7.06,10.25,10.58
					c6.72,7.14,13.17,14.49,19.51,21.92l-12.36,0.79c11.14-20.38,23.79-39.81,37.49-58.57c6.87-9.37,14.09-18.52,21.74-27.4
					c7.68-8.86,15.7-17.5,24.68-25.55c-3.99,11.19-8.93,21.78-14.2,32.15c-5.3,10.36-11.05,20.44-17.13,30.3
					c-12.22,19.7-25.49,38.74-40.27,56.82l-7.36,9l-5-8.22c-5.09-8.37-10.07-16.82-14.79-25.47c-2.29-4.37-4.7-8.66-6.9-13.11
					C899.5,793.41,897.32,788.96,895.33,784.36z"/>
			</g>
			<g>
				<polygon class="st0" points="976.5,1044.09 869.26,1044.09 876.76,936.85 984,936.85 				"/>
				<g>
					<polygon class="st1" points="1388.29,952.56 1040.81,952.56 1041.91,936.85 1389.39,936.85 					"/>
					<polygon class="st0" points="1649.98,983.07 1038.68,983.07 1039.78,967.36 1651.08,967.36 					"/>
					<polygon class="st0" points="1647.84,1013.58 1036.55,1013.58 1037.65,997.87 1648.94,997.87 					"/>
					<polygon class="st0" points="1645.71,1044.09 1034.41,1044.09 1035.51,1028.37 1646.81,1028.37 					"/>
				</g>
				<path class="st3" d="M881.3,984.91c3.72,3.3,7.25,6.74,10.74,10.22c3.52,3.45,6.83,7.06,10.25,10.58
					c6.72,7.14,13.17,14.49,19.51,21.92l-12.36,0.79c11.14-20.38,23.79-39.81,37.49-58.57c6.87-9.37,14.09-18.52,21.74-27.4
					c7.68-8.86,15.7-17.5,24.68-25.55c-3.99,11.19-8.93,21.78-14.2,32.15c-5.3,10.36-11.05,20.44-17.13,30.3
					c-12.22,19.7-25.49,38.74-40.27,56.82l-7.36,9l-5-8.22c-5.09-8.37-10.07-16.82-14.79-25.47c-2.29-4.37-4.7-8.66-6.9-13.11
					C885.48,993.96,883.29,989.51,881.3,984.91z"/>
			</g>
			<g>
				<polygon class="st0" points="962.48,1244.64 855.23,1244.64 862.73,1137.39 969.98,1137.39 				"/>
				<g>
					<polygon class="st1" points="1374.26,1153.11 1026.79,1153.11 1027.89,1137.39 1375.36,1137.39 					"/>
					<polygon class="st0" points="1635.95,1183.62 1024.66,1183.62 1025.76,1167.9 1637.05,1167.9 					"/>
					<polygon class="st0" points="1633.82,1214.13 1022.52,1214.13 1023.62,1198.41 1634.92,1198.41 					"/>
					<polygon class="st0" points="1631.69,1244.64 1020.39,1244.64 1021.49,1228.92 1632.78,1228.92 					"/>
				</g>
				<path class="st3" d="M867.28,1185.46c3.72,3.3,7.25,6.74,10.74,10.22c3.52,3.45,6.83,7.06,10.25,10.58
					c6.72,7.14,13.17,14.49,19.51,21.92l-12.36,0.79c11.14-20.38,23.79-39.81,37.49-58.57c6.88-9.37,14.09-18.52,21.74-27.4
					c7.68-8.86,15.7-17.5,24.68-25.55c-3.99,11.19-8.93,21.78-14.2,32.15c-5.3,10.36-11.05,20.44-17.13,30.3
					c-12.22,19.7-25.49,38.74-40.27,56.82l-7.36,9l-5-8.22c-5.09-8.37-10.07-16.82-14.79-25.47c-2.29-4.37-4.7-8.66-6.9-13.11
					C871.46,1194.51,869.27,1190.06,867.28,1185.46z"/>
			</g>
			<g>
				<polygon class="st0" points="948.45,1445.19 841.21,1445.19 848.71,1337.94 955.95,1337.94 				"/>
				<g>
					<polygon class="st1" points="1360.24,1353.66 1012.77,1353.66 1013.87,1337.94 1361.34,1337.94 					"/>
					<polygon class="st0" points="1621.93,1384.17 1010.63,1384.17 1011.73,1368.45 1623.03,1368.45 					"/>
					<polygon class="st0" points="1619.8,1414.68 1008.5,1414.68 1009.6,1398.96 1620.89,1398.96 					"/>
					<polygon class="st0" points="1617.66,1445.19 1006.37,1445.19 1007.47,1429.47 1618.76,1429.47 					"/>
				</g>
			</g>
			<g>
				<polygon class="st0" points="934.43,1645.74 827.19,1645.74 834.68,1538.49 941.93,1538.49 				"/>
				<g>
					<polygon class="st1" points="1346.22,1554.21 998.74,1554.21 999.84,1538.49 1347.31,1538.49 					"/>
					<polygon class="st0" points="1607.91,1584.72 996.61,1584.72 997.71,1569 1609,1569 					"/>
					<polygon class="st0" points="1605.77,1615.23 994.48,1615.23 995.57,1599.51 1606.87,1599.51 					"/>
					<polygon class="st0" points="1603.64,1645.74 992.34,1645.74 993.44,1630.02 1604.74,1630.02 					"/>
				</g>
			</g>
			<g>
				<path class="st1" d="M1103.73,554.5c6.66,0,12.61,2.32,17.08,5.96c0.8,0.7,0.86,2.01,0.12,2.71c-0.68,0.93-1.93,1.01-2.66,0.39
					c-3.96-3.25-9.08-5.27-14.81-5.27c-13.55,0-25.13,10.61-26.06,23.85c-0.9,12.93,9.2,23.54,22.74,23.54
					c5.73,0,11.13-1.86,15.39-5.26c0.97-0.62,2.2-0.47,2.68,0.46c0.73,0.7,0.48,2.09-0.42,2.71c-4.98,3.64-11.25,5.88-17.91,5.88
					c-15.56,0-27.33-12.23-26.27-27.33C1074.69,566.73,1088.16,554.57,1103.73,554.5z"/>
				<path class="st1" d="M1167.21,584.23h-27.87l-1.64,23.38c-0.07,1.01-0.98,1.86-2.07,1.86c-1.01,0-1.8-0.85-1.73-1.86l3.53-50.48
					c0.07-1.01,0.98-1.86,1.99-1.86c1.08,0,1.88,0.85,1.81,1.86l-1.64,23.38h27.87l1.64-23.38c0.07-1.01,0.98-1.86,1.99-1.86
					c1.08,0,1.88,0.85,1.8,1.86l-3.53,50.48c-0.07,1.01-0.98,1.86-2.06,1.86c-1.01,0-1.8-0.85-1.73-1.86L1167.21,584.23z"/>
				<path class="st1" d="M1192.31,557.13c0.07-1.01,0.98-1.86,1.99-1.86h0.16h27.72c1.08,0,1.8,0.85,1.73,1.86
					c-0.08,1.08-0.91,1.93-1.99,1.93h-25.94l-1.5,21.45h22.69c1.01,0,1.8,0.85,1.72,1.93c-0.07,1.01-0.98,1.86-1.99,1.86h-22.69
					l-1.49,21.37h25.94c1.08,0,1.8,0.85,1.72,1.93c-0.07,1.01-0.9,1.86-1.99,1.86h-27.64h-0.23h-0.16
					c-0.92-0.08-1.64-0.85-1.57-1.86L1192.31,557.13z"/>
				<path class="st1" d="M1264.18,554.5c6.66,0,12.61,2.32,17.08,5.96c0.8,0.7,0.87,2.01,0.12,2.71c-0.68,0.93-1.93,1.01-2.66,0.39
					c-3.96-3.25-9.08-5.27-14.81-5.27c-13.55,0-25.13,10.61-26.06,23.85c-0.9,12.93,9.2,23.54,22.74,23.54
					c5.73,0,11.13-1.86,15.39-5.26c0.97-0.62,2.2-0.47,2.68,0.46c0.73,0.7,0.48,2.09-0.42,2.71c-4.98,3.64-11.25,5.88-17.91,5.88
					c-15.56,0-27.33-12.23-26.27-27.33C1235.14,566.73,1248.61,554.57,1264.18,554.5z"/>
				<path class="st1" d="M1297.87,557.36c0.08-1.08,0.99-1.93,1.99-1.93c1.08,0,1.88,0.85,1.8,1.93l-2.19,31.36l35.04-32.75
					c0.82-0.7,2.06-0.7,2.63,0c0.72,0.7,0.64,1.94-0.19,2.71l-22.2,20.75l19.33,26.95c0.56,0.85,0.33,1.93-0.5,2.71
					c-0.41,0.31-0.8,0.39-1.27,0.39c-0.54,0-1-0.16-1.34-0.7l-19.12-26.64l-12.76,11.93l-0.95,13.55c-0.07,1.01-0.98,1.86-2.07,1.86
					c-1.01,0-1.8-0.85-1.73-1.86L1297.87,557.36z"/>
				<path class="st1" d="M1351.58,609.47h-0.16c-1.01,0-1.8-0.85-1.73-1.86l3.53-50.48c0.07-1.01,0.98-1.86,1.99-1.86
					c1.08,0,1.88,0.85,1.81,1.86l-3.39,48.55h25.94c1.08,0,1.88,0.85,1.8,1.93c-0.07,1.01-0.98,1.86-2.07,1.86H1351.58z"/>
				<path class="st1" d="M1397.73,557.13c0.07-1.01,0.98-1.86,1.99-1.86c1.08,0,1.88,0.85,1.81,1.86l-3.53,50.48
					c-0.07,1.01-0.98,1.86-2.07,1.86c-1.01,0-1.8-0.85-1.73-1.86L1397.73,557.13z"/>
				<path class="st1" d="M1415.37,599.33c0.68-0.77,1.76-0.85,2.42-0.23c3.8,3.25,10.27,7.05,17.32,6.97
					c4.72,0,9.08-1.39,12.17-3.56c3.17-2.17,5-5.03,5.21-8.05c0.22-3.1-1.09-5.42-3.89-7.43c-2.81-1.93-7.04-3.41-12.24-4.41h-0.15
					c-4.97-0.93-9.29-2.32-12.46-4.57c-3.18-2.17-5.19-5.42-4.91-9.45c0.29-4.11,2.78-7.67,6.36-10.14
					c3.58-2.48,8.25-3.95,13.36-3.95c7.12,0,12.22,3.48,16.29,6.27c0.74,0.54,0.9,1.55,0.3,2.4c-0.52,0.77-1.62,1.01-2.35,0.47
					c-4.06-2.79-8.5-5.73-14.47-5.73c-4.41,0-8.46,1.32-11.3,3.25c-2.85,2.01-4.58,4.65-4.78,7.44c-0.11,2.71,0.99,4.72,3.57,6.58
					c2.58,1.86,6.51,3.17,11.33,4.1h0.15c5.35,1.01,10.04,2.56,13.44,4.96c3.4,2.32,5.55,5.89,5.25,10.22
					c-0.3,4.34-3.05,8.21-6.88,10.84c-3.82,2.63-8.82,4.26-14.24,4.26c-8.28-0.08-15.19-4.26-19.43-7.82
					C1414.78,601.11,1414.78,600.03,1415.37,599.33z"/>
				<path class="st1" d="M1485.14,559.07h-16.34c-1.01,0-1.8-0.85-1.72-1.93c0.07-1.01,0.98-1.86,1.99-1.86h36.39
					c1.01,0,1.8,0.85,1.73,1.86c-0.08,1.08-0.99,1.93-1.99,1.93h-16.34l-3.39,48.55c-0.07,1.01-0.98,1.86-1.99,1.86
					c-1.01,0-1.8-0.85-1.73-1.86L1485.14,559.07z"/>
			</g>
		</g>
	</g>
	<g>
		<polygon class="st6" points="1563.25,444.32 1035.6,444.32 1046.85,283.45 1574.49,283.45 		"/>
		<path class="st6" d="M1478.14,195.49h-327.45l-20.66,87.95h361.31L1478.14,195.49z M1312.38,258.77c-10.64,0-18.7-8.61-17.95-19.3
			c0.74-10.64,10.01-19.3,20.65-19.3c10.69,0,18.7,8.66,17.95,19.3C1332.29,250.16,1323.08,258.77,1312.38,258.77z"/>
		<polygon class="st7" points="1491.34,283.44 1130.03,283.44 1134.64,263.75 1488.36,263.75 		"/>
	</g>
</g>
<g>
	<g>
		<g>
			<path class="st8" d="M473,761.93c7.21,53.41,47,180.26,76.7,188.32c27.66,7.51,149.28-28.73,164.93-52.86
				c8.38-12.92,41.55-131.56,26.69-124.47c-18.77,8.96-156.46,78.58-162.13,77.15c-11.94-3-35.27-50.1-55.42-76.44
				C479.83,716.21,469.63,736.99,473,761.93z"/>
		</g>
		<path class="st1" d="M556.08,814.98l-62.36,57.12c0,0-22.07-81.62-24.56-119.38C466.67,714.97,497.59,719.22,556.08,814.98z"/>
	</g>
	<g>
		<g>
			<path class="st9" d="M300.64,1356.47c0,0-65.92,104.35-133.43,53.63c-67.5-50.73,14.39-143.08,14.39-143.08L300.64,1356.47z"/>
			<g>
				
					<rect x="424.44" y="534.71" transform="matrix(-0.7995 -0.6007 0.6007 -0.7995 315.8225 2042.8092)" class="st3" width="148.9" height="867.96"/>
				
					<rect x="424.44" y="534.71" transform="matrix(-0.7995 -0.6007 0.6007 -0.7995 315.8225 2042.8092)" class="st4" width="148.9" height="867.96"/>
			</g>
			
				<rect x="158.82" y="1288.32" transform="matrix(-0.7995 -0.6007 0.6007 -0.7995 -342.0655 2496.9519)" class="st10" width="173.87" height="34.5"/>
			
				<rect x="181.73" y="1257.84" transform="matrix(-0.7995 -0.6007 0.6007 -0.7995 -282.5237 2455.8579)" class="st10" width="173.87" height="34.5"/>
			<g>
				<path class="st0" d="M700,577l109.15-51.99l35.92-17.27l-6.33,39.51l-19.57,119.31l-25.04,8.23c0,0,1.27-25.68,1.2-26.14
					l-25.04,8.23c0,0,1.27-25.68,1.2-26.15l-24.78,8.43c0,0,1.01-25.88,0.94-26.34l-24.78,8.43c0,0,1-25.88,0.94-26.34l-24.77,8.43
					C699.06,603.34,700.07,577.46,700,577z"/>
				<polygon class="st10" points="809.16,525.01 845.08,507.74 838.75,547.25 				"/>
			</g>
			<g class="st4">
				<path d="M349.12,1232.87c32.28-44.62,64.99-88.92,97.76-133.18l98.79-132.4l99.68-131.73l50.16-65.63l50.57-65.32l-48.67,66.74
					l-49.08,66.44l-98.79,132.4l-99.69,131.72C416.45,1145.71,383,1189.45,349.12,1232.87z"/>
				<path d="M316.07,1212c32.28-44.62,64.99-88.92,97.76-133.18l98.79-132.4l99.68-131.73l50.16-65.63l50.57-65.32l-48.67,66.74
					l-49.08,66.44l-98.79,132.4l-99.69,131.72C383.4,1124.83,349.95,1168.58,316.07,1212z"/>
				<path d="M283.02,1191.12c32.28-44.62,64.99-88.92,97.76-133.18l98.79-132.4l99.68-131.73l50.16-65.63l50.57-65.32l-48.67,66.74
					l-49.08,66.44l-98.79,132.4l-99.69,131.72C350.35,1103.96,316.9,1147.7,283.02,1191.12z"/>
			</g>
		</g>
		<g>
			<g>
				<path class="st8" d="M753.14,768.64c1.76,18.48,13.48,44.9,10.35,58.33c-2.83,12.13-13.97,12.71-13.97,12.71
					s10.52,11.07,5.66,22.8c-2.5,6.03-14.33,7.34-14.33,7.34s8.04,9.24,3.08,19.4c-3.95,8.09-15.21,8.2-15.21,8.2
					s3.58,12.46-3.09,19.42c-13.52,14.11-86.2-12.3-87.7-43.15c-0.7-14.38,16.7-6.97,16.7-6.97s-22.45-16.7-17.39-31.82
					c5.06-15.12,27.09-4.13,27.09-4.13s-21.61-16.38-14.78-31.53c7.11-15.77,27.26-1,27.26-1s-12.18-16.83-4.3-27.23
					c13.02-17.17,34.77,18.27,52.12,20.29l18.38-23.13L753.14,768.64z"/>
				<path class="st8" d="M759.39,796.83c-0.13-17.64,26.09-29.84,28.38-46.73c3.11-22.85-28.27-10.75-44.75,18.09l-8.86,24.63
					L759.39,796.83z"/>
				<g>
					<path class="st1" d="M726.95,897.7c0.25,0.07,0.2,0.43-0.06,0.4c-26.02-2.86-53.73-13.98-73.24-31.66
						c-0.64-0.58,0.02-1.87,0.85-1.37C678.09,879.45,700.18,890.34,726.95,897.7z"/>
					<path class="st1" d="M741.16,870.11c0.29,0.08,0.16,0.56-0.16,0.53c-26.79-3.09-57.66-16.47-77.75-39.51
						c-0.69-0.79-0.52-2.19,0.35-1.34C678.11,844.09,717.02,863.6,741.16,870.11z"/>
					<path class="st1" d="M675.88,796.12c20.12,21.34,45.05,34.08,72.54,43.49c0.36,0.12,0.15,0.62-0.18,0.59
						c-14.7-0.94-31.6-8.76-44.23-15.96c-12.1-6.9-21.63-15.55-28.87-27.42C674.85,796.36,675.45,795.66,675.88,796.12z"/>
				</g>
			</g>
		</g>
	</g>
	<g>
		<g>
			<g>
				<path class="st8" d="M747.64,2030.64c-9.3,3.09-274.63,2.31-284.74-4.1c-3.82-2.4-5.97-41.08-7.23-87.85
					c-0.28-10.11-0.49-20.5-0.65-31.14c-0.2-12.54-0.37-25.25-0.45-37.59c-0.32-55.41,0.45-104.21,0.45-104.21h172.74l-0.08,104.21
					l-0.04,37.59l-0.89,31.14c0,0,101.45,45.75,111.76,53.99C748.78,2000.88,756.9,2027.59,747.64,2030.64z"/>
				<path class="st5" d="M747.64,2030.64c-9.3,3.09-274.63,2.31-284.74-4.1c-3.82-2.4-5.97-41.08-7.23-87.85
					c-0.28-10.11-0.49-20.5-0.65-31.14c-0.2-12.54-0.37-25.25-0.45-37.59h173.1l-0.04,37.59l-0.89,31.14
					c0,0,101.45,45.75,111.76,53.99C748.78,2000.88,756.9,2027.59,747.64,2030.64z"/>
				<g>
					<path class="st3" d="M748.44,2031.04c-6.05,1.99-119.07,2.39-201.36,0.69c-19.04-0.41-36.46-0.93-50.5-1.54
						c-19.36-0.89-32.35-1.95-34.47-3.29c-4.67-3-6.9-59.76-7.96-119.64h173.59l-0.89,31.3c0,0,102.02,46,112.41,54.28
						C749.58,2001.12,757.74,2027.91,748.44,2031.04z"/>
					<g>
						<g>
							<path class="st1" d="M744.64,2020.35c-44.72-1.23-225.22-1.96-269.53,0.23c-0.36,0.02-0.36,0.26,0,0.28
								c44.3,2.19,224.8,1.45,269.53,0.23C745.59,2021.06,745.59,2020.38,744.64,2020.35z"/>
							<path class="st1" d="M633.21,1928.65c-17.59-3.34-39.13-0.7-52.61,11.8c-0.52,0.48,0.17,1.22,0.74,1.04
								c17.38-5.42,33.61-8.89,51.79-10.62C634.41,1930.75,634.47,1928.89,633.21,1928.65z"/>
							<path class="st1" d="M645.89,1936.34c-17.59-3.34-39.12-0.7-52.61,11.8c-0.52,0.48,0.17,1.22,0.74,1.04
								c17.38-5.42,33.61-8.89,51.79-10.62C647.09,1938.44,647.15,1936.58,645.89,1936.34z"/>
							<path class="st1" d="M658.57,1944.03c-17.59-3.34-39.12-0.7-52.61,11.8c-0.52,0.48,0.17,1.22,0.74,1.04
								c17.38-5.42,33.61-8.89,51.79-10.62C659.77,1946.13,659.83,1944.27,658.57,1944.03z"/>
							<path class="st1" d="M671.25,1951.73c-17.59-3.34-39.12-0.7-52.61,11.8c-0.52,0.48,0.17,1.22,0.74,1.04
								c17.38-5.42,33.61-8.89,51.79-10.62C672.46,1953.83,672.51,1951.96,671.25,1951.73z"/>
						</g>
						<g>
							<path class="st1" d="M665.83,1888.04c-6.89-9.54-19.78-5.3-27.14,0.85c-11.93,9.96-22.39,25.55-27.22,40.24
								c-0.12,0.36,0.12,0.58,0.41,0.63c0.05,1.34,1.25,2.76,2.75,2.21c14.55-5.34,30.76-9.24,43.24-18.89
								C665.15,1907.45,672.35,1897.07,665.83,1888.04z M635.03,1919.37c-7.09,2.8-14.28,5.24-21.26,8.3
								c5.33-7.83,10.3-15.86,16.41-23.15c2.92-3.48,5.98-7,9.36-10.05c5.25-4.75,26.01-14.83,22.85,4.47
								C660.65,1909.58,643.48,1916.03,635.03,1919.37z"/>
							<path class="st1" d="M566.74,1924.41c14.49,6.22,31.17,5.96,46.59,7.5c1.6,0.16,2.4-1.52,2.12-2.82
								c0.27-0.12,0.45-0.4,0.24-0.72c-8.35-13.02-22.37-25.5-36.4-32.17c-8.67-4.12-22.21-5.01-26.5,5.95
								C548.73,1912.51,558.28,1920.77,566.74,1924.41z M558.83,1911.83c-7.88-17.9,14.74-13.32,21.01-10.03
								c4.03,2.11,7.87,4.76,11.57,7.4c7.75,5.53,14.56,12.06,21.67,18.32c-7.53-1.22-15.09-1.78-22.66-2.73
								C581.41,1923.67,563.17,1921.7,558.83,1911.83z"/>
						</g>
					</g>
				</g>
			</g>
			<g>
				<path class="st1" d="M397.41,1029.63c0,0,46.69,461.74,47.78,467.59c0.16,0.77,0.49,9.66,0.93,24.15
					c2.52,79.49,8.73,327.33,8.73,327.33h190.48c0,0-12.42-293.55-19.57-362.04c-9.09-87.36-66.78-457.03-66.78-457.03H397.41z"/>
				<g>
					<path class="st11" d="M467.91,1513.49c-5.88-100.04-14.63-199.91-26.5-299.43c-6.69-56.1-14.73-112.01-22.74-167.93
						c-0.07-0.48-0.84-0.47-0.77,0.02c14.74,99.53,25.19,199.84,34.18,300.05c8.98,100.08,15.26,200.37,19.36,300.77
						c2.32,56.89,4.07,108.34,5.91,165.24c0.04,1.35,2.14,1.31,2.1-0.05C476.78,1710.74,473.86,1614.77,467.91,1513.49z"/>
					<path class="st11" d="M632.25,1817.11c-86.8-2.73-161.92-0.8-168.41-0.29c-5.38,0.42-2.39,0.98,0.29,1.14
						c73.69,4.41,165.25,0.27,168.14-0.09C632.78,1817.81,632.74,1817.12,632.25,1817.11z"/>
				</g>
			</g>
			<path class="st11" d="M397.41,1029.63c0,0,46.69,461.74,47.78,467.59c0.16,0.77,0.49,9.66,0.93,24.15l89.8-491.74H397.41z"/>
		</g>
		<g>
			<g>
				<path class="st8" d="M457.85,2068.35c-9.5,2.38-274.03-18.14-283.63-25.31c-3.65-2.68-2.89-41.4-0.66-88.12
					c0.45-10.1,0.54-20.58,1.65-31.1c1.36-13.24,2.88-26.47,4.51-39.21c6.89-55.34,14.88-101.55,14.88-101.55l167.39,12.48
					l-10.4,100.07l-4.24,41.05l-3.19,30.97c0,0,97.76,53.18,107.43,62.14C461.2,2038.72,467.31,2065.97,457.85,2068.35z"/>
				<path class="st5" d="M457.85,2068.35c-9.5,2.38-274.03-18.14-283.63-25.31c-3.65-2.68-2.89-41.4-0.66-88.12
					c0.45-10.1,0.54-20.58,1.65-31.1c1.36-13.24,2.88-26.47,4.51-39.21c51.59,3.61,125.73,8.22,171.86,11l-4.24,41.05l-3.19,30.97
					c0,0,97.76,53.18,107.43,62.14C461.2,2038.72,467.31,2065.97,457.85,2068.35z"/>
				<g>
					<path class="st3" d="M458.62,2068.77c-9.53,2.39-275.55-18.23-285.2-25.43c-4.46-3.32-2.44-60.08,0.97-119.89l173.09,12.91
						l-3.21,31.15c0,0,98.32,53.45,108.05,62.48C462.01,2039.02,468.16,2066.38,458.62,2068.77z"/>
					<g>
						<g>
							<path class="st1" d="M455.63,2057.83c-44.51-4.55-224.45-18.71-268.79-19.83c-0.36-0.01-0.38,0.24-0.02,0.28
								c44.02,5.47,224.07,18.17,268.76,20.28C456.52,2058.61,456.57,2057.93,455.63,2057.83z"/>
							<path class="st1" d="M351.33,1958.09c-17.29-4.64-38.96-3.61-53.34,7.86c-0.56,0.44,0.08,1.23,0.66,1.09
								c17.74-4.11,34.17-6.36,52.44-6.74C352.37,1960.27,352.56,1958.42,351.33,1958.09z"/>
							<path class="st1" d="M363.4,1966.7c-17.29-4.63-38.96-3.6-53.34,7.86c-0.56,0.44,0.08,1.23,0.67,1.09
								c17.74-4.12,34.17-6.37,52.44-6.74C364.45,1968.89,364.64,1967.04,363.4,1966.7z"/>
							<path class="st1" d="M375.48,1975.32c-17.29-4.64-38.96-3.61-53.34,7.86c-0.56,0.44,0.08,1.23,0.66,1.09
								c17.74-4.11,34.17-6.36,52.44-6.74C376.52,1977.51,376.71,1975.65,375.48,1975.32z"/>
							<path class="st1" d="M387.55,1983.94c-17.29-4.63-38.97-3.6-53.34,7.86c-0.56,0.44,0.08,1.23,0.66,1.09
								c17.74-4.11,34.17-6.36,52.44-6.74C388.6,1986.12,388.79,1984.27,387.55,1983.94z"/>
						</g>
						<g>
							<path class="st1" d="M386.88,1920.02c-6.16-10.03-19.33-6.76-27.13-1.17c-12.64,9.05-24.23,23.81-30.14,38.1
								c-0.15,0.35,0.08,0.59,0.36,0.67c-0.05,1.34,1.04,2.84,2.58,2.4c14.9-4.24,31.37-6.93,44.53-15.62
								C384.76,1939.33,392.71,1929.51,386.88,1920.02z M353.84,1948.97c-7.28,2.26-14.63,4.16-21.82,6.69
								c5.9-7.42,11.45-15.05,18.09-21.87c3.17-3.25,6.49-6.53,10.08-9.33c5.59-4.35,27.04-12.85,22.46,6.16
								C380.11,1941.11,362.52,1946.27,353.84,1948.97z"/>
							<path class="st1" d="M285.36,1948.92c13.99,7.29,30.64,8.26,45.9,10.94c1.58,0.28,2.51-1.33,2.32-2.66
								c0.28-0.1,0.47-0.36,0.29-0.7c-7.36-13.6-20.41-27.09-33.91-34.79c-8.34-4.75-21.78-6.65-26.87,3.96
								C268.28,1935.72,277.2,1944.66,285.36,1948.92z M278.41,1935.79c-6.52-18.44,15.69-12.19,21.7-8.44
								c3.86,2.41,7.5,5.33,10.99,8.24c7.31,6.1,13.62,13.11,20.25,19.88c-7.42-1.78-14.92-2.9-22.4-4.41
								C300.04,1949.27,282.01,1945.96,278.41,1935.79z"/>
						</g>
					</g>
				</g>
			</g>
			<g>
				<path class="st1" d="M558.98,1029.63c0,0-5.63,47.01-32.61,80.91c-6.45,8.11-26.27,15.67-36.52,23.14
					c0,0-38.32,352.05-49.99,391.94c-12.96,44.28-63.55,347.16-63.55,347.16l-198.96-13.92c0,0,59.74-297.31,73.93-370.95
					c3.17-16.44,45.78-326.28,44.82-333.45c-11.44-85.31,30.05-124.83,30.05-124.83H558.98z"/>
				<g>
					<path class="st11" d="M405.14,1034.79c-3.58,13.4-12.35,25.13-23.31,33.47c-12.33,9.38-27.12,13.29-42.32,14.5
						c-2.57,0.21-2.78,4.08-0.09,4.1c31.06,0.18,62.44-19.67,66.99-51.87C406.52,1034.26,405.33,1034.1,405.14,1034.79z"/>
					<path class="st11" d="M530.07,1109.13c-11.42,4.07-21.82,10.67-32.08,17.02c-10.66,6.6-20.51,14.33-30.8,21.45
						c-0.4,0.27-0.06,0.92,0.37,0.67c10.79-6.21,22.03-11.6,32.71-18.02c10.37-6.23,21.14-12.27,30.26-20.29
						C530.89,1109.65,530.54,1108.96,530.07,1109.13z"/>
					<path class="st11" d="M534.44,1044.38c-1.66,7.11-3.73,14.14-5.6,21.2c-1.76,6.62-3.14,13.4-5.21,19.94
						c-2.01,6.34-5.01,12.09-10.15,16.45c-2.74,2.32-5.73,4.35-8.63,6.45c-1.56,1.14-3.25,2.22-4.87,3.37
						c0.25-0.94,0.46-1.89,0.67-2.86c0.6-2.7,1.19-5.4,1.77-8.1c1.29-6,2.53-12.01,3.74-18.02c2.36-11.82,4.59-23.78,7.61-35.45
						c0.12-0.48-0.59-0.69-0.73-0.22c-3.5,11.54-7.3,22.95-10.42,34.61c-1.53,5.72-7.35,34.03-7.64,36.04
						c-0.3,2.08-0.57,4.16-0.74,6.25c-0.17,2.06-0.68,4.35-0.3,6.4c0.1,0.53,0.73,0.47,0.97,0.13c0.01,0.01,0.02,0.02,0.03,0.02
						c1.12-1.77,1.49-4.13,2.1-6.12c0.62-2.01,1.17-4.06,1.63-6.11c0.17-0.74,0.31-1.5,0.45-2.26c2.89-1.58,5.61-3.72,8.32-5.5
						c2.92-1.92,5.9-3.79,8.68-5.92c5.32-4.08,8.77-9.23,10.97-15.54c2.29-6.55,3.22-13.52,4.3-20.34
						c1.28-8.06,2.31-16.18,3.81-24.2C535.26,1044.12,534.55,1043.89,534.44,1044.38z"/>
					<path class="st11" d="M366.66,1838.39c-86.31-9.67-161.34-13.75-167.85-13.77c-5.4-0.01-2.46,0.79,0.2,1.16
						c73.1,10.3,164.7,13.5,167.61,13.37C367.13,1839.12,367.15,1838.44,366.66,1838.39z"/>
				</g>
			</g>
		</g>
	</g>
	<g>
		<g>
			<path class="st3" d="M554.18,933.26l16.22,133.67c0,0-217.17-1.93-270.96-7c0,0,49.85-247.99,109.28-309.53
				c29.73-30.78,63.7-27.63,84.87-5.11c5.36,5.7,68.79,93.78,74.9,127.01C573.81,901.6,554.18,933.26,554.18,933.26z"/>
			<g>
				<path class="st5" d="M460.56,824.07c1.79-0.3,3.52-1.01,5.65-0.3c2.02,0.68,3.49,2.78,3.51,4.98c-0.03,1.48,0.71,2.8,1.95,3.65
					c0.64,0.44,1.33,0.64,2.24,0.72c0.9,0.18,1.79,0.28,2.69,0.52c-1.76,0.3-3.56,1.03-5.66,0.21c-2-0.74-3.36-2.95-3.33-5.07
					c0.02-1.41-0.8-2.76-2.07-3.54c-0.66-0.42-1.34-0.58-2.28-0.66C462.35,824.41,461.45,824.31,460.56,824.07z"/>
				<path class="st5" d="M510.12,1001.35c1.79-0.3,3.52-1.01,5.65-0.3c2.01,0.68,3.49,2.78,3.51,4.98c-0.04,1.48,0.71,2.8,1.95,3.65
					c0.64,0.44,1.33,0.65,2.24,0.72c0.9,0.18,1.79,0.28,2.69,0.52c-1.76,0.3-3.56,1.03-5.66,0.21c-2-0.74-3.36-2.95-3.33-5.07
					c0.02-1.41-0.8-2.76-2.07-3.54c-0.66-0.42-1.34-0.58-2.28-0.66C511.91,1001.69,511.01,1001.59,510.12,1001.35z"/>
				<path class="st5" d="M430.11,753.05c-1.74,0.34-3.53,1.06-5.66,0.24c-1.98-0.77-3.34-2.95-3.34-5.08
					c0.05-1.4-0.77-2.76-2.03-3.53c-0.68-0.44-1.35-0.58-2.32-0.68c-0.34-0.1-0.68-0.15-1.02-0.19c0.34-0.29,0.73-0.58,1.06-0.87
					c0.92-0.1,1.89-0.15,2.95,0.24c1.98,0.68,3.48,2.81,3.48,4.98c-0.05,1.5,0.73,2.81,1.94,3.68c0.68,0.44,1.35,0.63,2.27,0.73
					C428.32,752.71,429.24,752.81,430.11,753.05z"/>
				<path class="st5" d="M390.27,898.24c1.78-0.3,3.52-1.01,5.65-0.3c2.01,0.68,3.48,2.78,3.51,4.98c-0.04,1.48,0.71,2.8,1.95,3.65
					c0.64,0.44,1.33,0.65,2.24,0.72c0.9,0.18,1.79,0.28,2.69,0.52c-1.76,0.3-3.56,1.03-5.66,0.21c-2-0.74-3.36-2.95-3.33-5.07
					c0.02-1.41-0.8-2.76-2.07-3.54c-0.66-0.42-1.34-0.58-2.28-0.66C392.06,898.58,391.16,898.48,390.27,898.24z"/>
				<path class="st5" d="M504.8,1066.13h-2.32c-0.34-0.73-0.48-1.55-0.48-2.32c0-1.4-0.77-2.76-2.08-3.53
					c-0.63-0.44-1.31-0.58-2.27-0.68c-0.87-0.15-1.79-0.24-2.66-0.48c1.79-0.29,3.48-1.02,5.61-0.29c2.03,0.68,3.48,2.76,3.53,4.98
					C504.08,1064.63,504.32,1065.41,504.8,1066.13z"/>
				<path class="st5" d="M444,973.4c1.79-0.3,3.52-1.01,5.65-0.3c2.01,0.68,3.48,2.78,3.51,4.98c-0.04,1.48,0.71,2.8,1.95,3.65
					c0.64,0.44,1.33,0.65,2.24,0.72c0.89,0.18,1.79,0.28,2.69,0.52c-1.76,0.3-3.56,1.03-5.66,0.21c-2-0.74-3.36-2.95-3.33-5.07
					c0.02-1.41-0.8-2.76-2.07-3.54c-0.66-0.42-1.34-0.58-2.28-0.66C445.8,973.74,444.9,973.64,444,973.4z"/>
				<path class="st5" d="M327.17,961.26c-1.45,0.24-2.95,0.77-4.55,0.48c0.15-0.44,0.24-0.87,0.39-1.35
					c0.44,0.19,0.92,0.29,1.5,0.34C325.38,960.92,326.3,961.01,327.17,961.26z"/>
				<path class="st5" d="M347.58,989.26c1.79-0.3,3.52-1.01,5.65-0.3c2.02,0.68,3.49,2.78,3.51,4.98c-0.04,1.48,0.71,2.8,1.95,3.65
					c0.64,0.44,1.33,0.65,2.24,0.72c0.9,0.18,1.79,0.28,2.69,0.52c-1.76,0.3-3.56,1.03-5.66,0.21c-2-0.74-3.36-2.95-3.33-5.07
					c0.02-1.41-0.8-2.76-2.07-3.54c-0.66-0.42-1.34-0.58-2.28-0.66C349.37,989.6,348.48,989.49,347.58,989.26z"/>
				<path class="st5" d="M488.39,900.38c1.79-0.3,3.52-1.01,5.65-0.3c2.02,0.68,3.49,2.78,3.51,4.98c-0.04,1.48,0.71,2.8,1.95,3.65
					c0.64,0.44,1.33,0.65,2.24,0.72c0.9,0.18,1.79,0.28,2.69,0.52c-1.76,0.3-3.56,1.03-5.66,0.21c-2-0.74-3.36-2.95-3.33-5.07
					c0.02-1.41-0.8-2.76-2.07-3.54c-0.66-0.42-1.34-0.58-2.28-0.66C490.18,900.72,489.29,900.62,488.39,900.38z"/>
				<path class="st5" d="M428.39,796.19c-1.05,1.47-1.78,3.2-3.78,4.2c-1.91,0.94-4.43,0.5-6-1.04c-1.02-1.07-2.48-1.48-3.96-1.21
					c-0.76,0.14-1.4,0.49-2.09,1.07c-0.76,0.51-1.46,1.07-2.27,1.53c1.03-1.46,1.79-3.25,3.85-4.15c1.93-0.89,4.46-0.29,5.94,1.23
					c0.98,1.01,2.52,1.38,3.97,1.04c0.77-0.17,1.36-0.54,2.08-1.15C426.88,797.22,427.59,796.66,428.39,796.19z"/>
				<path class="st5" d="M567.3,898.1c-1.05,1.47-1.78,3.2-3.78,4.2c-1.91,0.94-4.43,0.5-6-1.04c-1.02-1.07-2.48-1.48-3.96-1.21
					c-0.76,0.14-1.4,0.49-2.09,1.07c-0.76,0.51-1.46,1.07-2.27,1.53c1.03-1.46,1.79-3.25,3.85-4.15c1.93-0.89,4.46-0.29,5.94,1.23
					c0.99,1.01,2.52,1.38,3.97,1.04c0.77-0.17,1.36-0.54,2.08-1.15C565.8,899.13,566.5,898.57,567.3,898.1z"/>
				<path class="st5" d="M473.36,760.31c0.3,1.79,1.01,3.52,0.3,5.65c-0.68,2.02-2.78,3.49-4.98,3.51c-1.48-0.04-2.8,0.71-3.65,1.95
					c-0.44,0.64-0.65,1.33-0.72,2.24c-0.18,0.89-0.28,1.79-0.52,2.69c-0.3-1.76-1.03-3.56-0.21-5.66c0.74-2,2.95-3.36,5.07-3.33
					c1.41,0.02,2.76-0.8,3.54-2.07c0.42-0.66,0.58-1.34,0.66-2.28C473.02,762.1,473.12,761.21,473.36,760.31z"/>
				<path class="st5" d="M452.02,917.85c0.3,1.79,1.01,3.52,0.3,5.65c-0.68,2.02-2.78,3.49-4.98,3.51c-1.48-0.04-2.8,0.71-3.65,1.95
					c-0.44,0.64-0.65,1.33-0.72,2.24c-0.18,0.9-0.28,1.79-0.52,2.69c-0.3-1.76-1.03-3.56-0.21-5.66c0.74-2,2.95-3.36,5.07-3.33
					c1.41,0.02,2.76-0.8,3.54-2.07c0.42-0.66,0.58-1.34,0.66-2.28C451.68,919.64,451.78,918.74,452.02,917.85z"/>
				<path class="st5" d="M563.04,1035.07c0.3,1.79,1.01,3.52,0.3,5.65c-0.68,2.02-2.78,3.49-4.98,3.51
					c-1.48-0.04-2.8,0.71-3.65,1.95c-0.44,0.64-0.65,1.33-0.72,2.24c-0.18,0.89-0.28,1.79-0.52,2.69c-0.3-1.76-1.03-3.56-0.21-5.66
					c0.74-2,2.95-3.36,5.07-3.33c1.41,0.02,2.76-0.8,3.54-2.07c0.42-0.66,0.58-1.34,0.66-2.28
					C562.7,1036.86,562.8,1035.96,563.04,1035.07z"/>
				<path class="st5" d="M365.17,923.49c0.3,1.79,1.01,3.52,0.3,5.65c-0.68,2.02-2.78,3.49-4.98,3.51c-1.48-0.04-2.8,0.71-3.65,1.95
					c-0.44,0.64-0.65,1.33-0.72,2.24c-0.18,0.9-0.28,1.79-0.52,2.69c-0.3-1.76-1.03-3.56-0.21-5.66c0.74-2,2.95-3.36,5.07-3.33
					c1.41,0.02,2.76-0.8,3.54-2.07c0.42-0.66,0.58-1.34,0.66-2.28C364.83,925.28,364.93,924.38,365.17,923.49z"/>
				<path class="st5" d="M407.69,832.3c0.3,1.79,1.01,3.52,0.3,5.65c-0.68,2.02-2.78,3.49-4.98,3.51c-1.48-0.04-2.8,0.71-3.65,1.95
					c-0.44,0.64-0.64,1.33-0.72,2.24c-0.18,0.9-0.28,1.79-0.52,2.69c-0.3-1.76-1.03-3.56-0.21-5.66c0.74-2,2.95-3.36,5.07-3.33
					c1.41,0.02,2.76-0.8,3.54-2.07c0.42-0.66,0.58-1.34,0.66-2.28C407.34,834.09,407.45,833.2,407.69,832.3z"/>
				<path class="st5" d="M531.99,851.4c0.3,1.79,1.01,3.52,0.3,5.65c-0.68,2.02-2.78,3.49-4.98,3.51c-1.48-0.04-2.8,0.71-3.65,1.95
					c-0.44,0.64-0.65,1.33-0.72,2.24c-0.18,0.89-0.28,1.79-0.52,2.69c-0.3-1.76-1.03-3.56-0.21-5.66c0.74-2,2.95-3.36,5.07-3.33
					c1.41,0.02,2.76-0.8,3.54-2.07c0.42-0.66,0.58-1.34,0.66-2.28C531.64,853.19,531.75,852.3,531.99,851.4z"/>
				<path class="st5" d="M417.1,1010.93c0.3,1.79,1.01,3.52,0.3,5.65c-0.68,2.02-2.78,3.49-4.98,3.51c-1.48-0.04-2.8,0.71-3.65,1.95
					c-0.44,0.64-0.65,1.33-0.72,2.24c-0.18,0.9-0.28,1.79-0.52,2.69c-0.3-1.76-1.03-3.56-0.21-5.66c0.74-2,2.95-3.36,5.07-3.33
					c1.41,0.02,2.76-0.8,3.54-2.07c0.42-0.66,0.58-1.34,0.66-2.28C416.76,1012.72,416.86,1011.82,417.1,1010.93z"/>
				<path class="st5" d="M376.4,1035.07c0.3,1.79,1.01,3.52,0.3,5.65c-0.68,2.01-2.78,3.49-4.98,3.51c-1.48-0.04-2.8,0.71-3.65,1.95
					c-0.44,0.64-0.65,1.33-0.72,2.24c-0.18,0.89-0.28,1.79-0.52,2.69c-0.3-1.76-1.03-3.56-0.21-5.66c0.74-2,2.95-3.36,5.07-3.33
					c1.41,0.02,2.76-0.8,3.54-2.07c0.42-0.66,0.58-1.34,0.66-2.28C376.06,1036.86,376.16,1035.96,376.4,1035.07z"/>
				<path class="st5" d="M509.09,800.68c1.05-1.47,1.78-3.2,3.78-4.2c1.91-0.94,4.43-0.5,6,1.04c1.02,1.07,2.48,1.48,3.96,1.21
					c0.76-0.14,1.4-0.49,2.09-1.07c0.76-0.51,1.46-1.07,2.27-1.53c-1.03,1.46-1.79,3.25-3.85,4.15c-1.93,0.89-4.46,0.29-5.94-1.23
					c-0.98-1.01-2.52-1.38-3.97-1.04c-0.77,0.17-1.36,0.54-2.08,1.15C510.6,799.65,509.89,800.21,509.09,800.68z"/>
				<path class="st5" d="M438.17,871.98c1.05-1.47,1.78-3.2,3.78-4.2c1.91-0.94,4.43-0.5,6,1.04c1.02,1.07,2.48,1.48,3.96,1.21
					c0.76-0.14,1.4-0.49,2.09-1.07c0.76-0.51,1.46-1.07,2.27-1.53c-1.03,1.46-1.79,3.25-3.85,4.15c-1.93,0.89-4.46,0.29-5.94-1.23
					c-0.98-1.01-2.52-1.38-3.97-1.04c-0.77,0.17-1.36,0.54-2.08,1.15C439.68,870.96,438.98,871.52,438.17,871.98z"/>
				<path class="st5" d="M389.05,968.74c1.05-1.47,1.78-3.2,3.78-4.2c1.91-0.94,4.43-0.5,6,1.04c1.02,1.07,2.48,1.48,3.96,1.21
					c0.76-0.14,1.4-0.49,2.09-1.07c0.76-0.51,1.46-1.07,2.27-1.53c-1.03,1.46-1.79,3.25-3.85,4.15c-1.93,0.89-4.46,0.29-5.94-1.23
					c-0.98-1.01-2.52-1.38-3.97-1.04c-0.77,0.17-1.36,0.54-2.08,1.15C390.56,967.71,389.85,968.28,389.05,968.74z"/>
				<path class="st5" d="M428.37,1064.73c0,0.05-0.05,0.05-0.05,0.1c-0.05,0-0.05,0-0.1,0
					C428.27,1064.78,428.32,1064.78,428.37,1064.73z"/>
				<path class="st5" d="M505.34,958.79c1.05-1.47,1.78-3.2,3.78-4.2c1.91-0.94,4.43-0.5,6,1.04c1.02,1.07,2.48,1.48,3.96,1.21
					c0.76-0.14,1.4-0.49,2.09-1.07c0.76-0.51,1.46-1.07,2.27-1.53c-1.03,1.46-1.79,3.25-3.85,4.15c-1.93,0.89-4.46,0.29-5.94-1.23
					c-0.98-1.01-2.52-1.38-3.97-1.04c-0.77,0.17-1.36,0.54-2.08,1.15C506.85,957.77,506.14,958.33,505.34,958.79z"/>
				<path class="st5" d="M460.71,1029.23c1.05-1.47,1.78-3.2,3.78-4.2c1.91-0.94,4.43-0.5,6,1.04c1.02,1.07,2.48,1.48,3.96,1.21
					c0.76-0.14,1.4-0.49,2.09-1.07c0.76-0.51,1.46-1.07,2.27-1.53c-1.03,1.46-1.79,3.25-3.85,4.15c-1.94,0.89-4.46,0.29-5.94-1.23
					c-0.99-1.01-2.52-1.38-3.97-1.04c-0.77,0.17-1.36,0.54-2.08,1.15C462.22,1028.21,461.51,1028.77,460.71,1029.23z"/>
				<path class="st5" d="M320.2,1015.29c-1.02,1.5-1.79,3.29-3.87,4.16c-1.94,0.92-4.45,0.29-5.9-1.21
					c-0.44-0.44-1.02-0.77-1.6-0.92c0.15-0.63,0.34-1.31,0.48-1.98c0.97,0.24,1.84,0.68,2.56,1.35c1.02,1.11,2.47,1.5,3.97,1.21
					c0.77-0.15,1.4-0.48,2.08-1.06C318.7,1016.35,319.38,1015.77,320.2,1015.29z"/>
				<path class="st5" d="M351.33,874.26c1.05-1.47,1.78-3.2,3.78-4.2c1.91-0.94,4.43-0.5,6,1.04c1.02,1.07,2.48,1.48,3.96,1.21
					c0.76-0.14,1.4-0.49,2.09-1.07c0.76-0.51,1.46-1.07,2.27-1.53c-1.03,1.46-1.79,3.25-3.85,4.15c-1.93,0.89-4.46,0.29-5.94-1.23
					c-0.98-1.01-2.52-1.38-3.97-1.04c-0.77,0.17-1.36,0.54-2.08,1.15C352.84,873.24,352.13,873.8,351.33,874.26z"/>
			</g>
			<g>
				<path class="st1" d="M562.68,1004.46c-2.13-12.23-3.72-21.82-5.46-34.1c-1.8-12.27-3.65-24.54-5.24-36.84l-0.1-0.8l0.52-0.79
					c6.05-9.17,10.62-19.78,13.02-30.61c1.25-5.43,1.93-10.99,1.84-16.53c-0.09-5.58-0.55-11.02-2.25-16.38
					c-3.19-10.74-7.74-21.28-12.85-31.49c-5.12-10.22-9.32-18.79-15.05-28.75c-0.95-1.52-0.33-1.89,0.54-0.65
					c5.76,8.16,12.05,19.38,16.97,28.1c5.58,10.08,11,20.35,14.51,31.58c1.9,5.57,2.72,11.67,2.79,17.54
					c0.15,5.93-0.53,11.86-1.81,17.62c-2.67,11.53-7.28,22.42-14.16,32.2l0.42-1.58c1.4,12.32,2.54,24.67,3.73,37.02
					c1.11,11.09,2.36,23.05,3.15,34.18C563.34,1005.46,563.36,1008.97,562.68,1004.46z"/>
				<path class="st1" d="M547.6,817.61c2.48,3.63,4.23,7.56,5.76,11.59c0.71,2.03,1.4,4.08,1.87,6.2c0.48,2.11,0.92,4.27,0.85,6.48
					c-1.83-3.96-3.52-7.83-4.99-11.85C549.67,826,548.33,821.94,547.6,817.61z"/>
			</g>
		</g>
		<g>
			<g>
				<path class="st8" d="M419.17,778.27c-17.64,26.64-101.1,131.56-104.21,141.63c-3.11,10.06,15.83,30.95,15.64,35.05
					c-0.75,16.71-42.75,117.25-57.65,106.62c-19.63-13.99-89.56-102.14-80.24-148.65c9.32-46.51,188.84-162.38,218.18-173.3
					C440.22,728.71,436.58,751.98,419.17,778.27z"/>
			</g>
			<g>
				<path class="st8" d="M351.41,1097.58c11.31-10.7-7.77-17.9-7.77-17.9s29.96,3.75,37.35-11.79
					c7.08-14.99-16.27-22.88-17.93-23.47c1.59,0.18,29.21,2.91,35.03-13.47c6.03-17.02-18.77-20.92-20.37-21.16
					c1.55-0.3,22.02-4.56,23.61-18c2.73-23.11-56.88-15.93-71.88-27.32c0,0,0.96-30.06,1.27-30.96c0,0-4.64,12.44-14.49,17.06
					c-12.21,5.73-23.39,9.71-27.58,16.71c-6.86,11.53,1.37,20.31,1.37,20.31s-16.49,0.78-21.48,13.53
					c-2.54,6.55,5.67,16.45,5.67,16.45s-13.18,1.18-16.91,12.79c-3.01,9.26,5.7,17.75,5.7,17.75s-12.13,7-12.13,17.46
					C250.83,1086.67,327.17,1120.46,351.41,1097.58z"/>
				<g>
					<path class="st1" d="M264.17,1049.67c-0.24-0.13-0.48,0.18-0.25,0.36c22.39,17.24,52.28,29.32,80.7,30.16
						c0.93,0.03,1.38-1.48,0.36-1.7C315.86,1072.02,290.52,1063.97,264.17,1049.67z"/>
					<path class="st1" d="M273.76,1017.56c-0.28-0.16-0.55,0.32-0.27,0.53c23.17,17.64,57.21,30.32,90.08,27.43
						c1.13-0.1,2.04-1.32,0.73-1.3C342.3,1044.48,297.41,1030.55,273.76,1017.56z"/>
					<path class="st1" d="M379.93,1008.81c-31.63,1.56-60.57-7.18-89.01-20.42c-0.37-0.17-0.57,0.37-0.31,0.6
						c12.15,10.27,31.15,16.82,46.38,20.67c14.58,3.69,28.47,4.08,42.99,0.26C380.55,1009.77,380.61,1008.78,379.93,1008.81z"/>
				</g>
				<path class="st1" d="M262.16,1048.17c-5.53-5-9.84-11.74-7.92-19.48c0.87-3.51,3.08-6.53,6.04-8.61
					c3.67-2.58,9.27-2.79,11.94-3.1c-5.09-6.05-7.96-14.53-3.94-21.9c1.86-3.42,4.91-5.18,8.58-6.57
					c1.98-0.75,10.32-1.91,12.74-1.57c-4.18-3.44-6.51-9-6.15-14.39c0.42-6.28,4.29-11.03,9.38-14.4
					c5.86-3.87,12.76-5.57,19.28-7.96c3.39-1.24,6.74-2.48,9.77-4.49c2.75-1.83,5.01-4.21,7.26-9.01c0.3-0.65,0.36-0.02,0.13,0.52
					c-1.22,2.85-2.26,4.69-4.04,6.82c-1.8,2.15-3.88,4.03-6.18,5.64c-5.55,3.89-12.14,5.7-18.14,8.72
					c-5.25,2.64-10.17,6.4-12.78,11.82c-2.69,5.59-1.48,12.03,2.22,16.82c0.22,0.22,0.12,0.64-0.35,0.68
					c-2.81,0.23-9.41,2.26-11.06,3.14c-2.82,1.51-5.65,3.36-7.09,6.21c-3.26,6.44-1.73,14.6,2.36,20.52
					c0.15,0.21-6.68,1.27-11.34,5.01c-2.21,1.77-3.73,4.45-4.58,7.13c-2.01,6.32,0.03,13.63,4.87,18.11
					c0.08,0.07,0.09,0.16,0.11,0.24c0,0,0,0.01,0.01,0.01c0.01,0.06,0.02,0.1,0.01,0.16c0,0.09-0.04,0.16-0.11,0.24c0,0,0,0,0,0
					c-0.04,0.04-3.84,2.4-4.04,2.44c-0.12,0.03-0.13-0.13-0.06-0.23C259.2,1050.52,261.61,1048.45,262.16,1048.17z"/>
			</g>
			<path class="st1" d="M373.89,843l-73.96-41c0,0,75.37-50.03,110.39-64.38C445.34,723.27,446.14,757.14,373.89,843z"/>
		</g>
		<g>
			<path class="st1" d="M447.23,721.43c-11.74,4.69-15.02,13.24-11.36,23.12c4.09,11.06,38.08,32.6,52.19,25.34
				c12.21-6.28,1.68-35.46-4.91-42.04C479.4,724.12,463.82,714.79,447.23,721.43z"/>
			<g>
				<g>
					<path class="st8" d="M439.38,741.97c1.8,4,27.11,27.28,46.08,22.64c6.18-1.52-0.63-35.6-0.63-35.6l0.07-2.63l0.99-36.83
						l-46.65-18.49l-6.68-2.35c0,0,0.39,10.09,1.01,22.66c0.03,0.58,0.05,1.17,0.09,1.79c0.02,0.71,0.02,1.38,0.07,2.05
						c0.07,1.88,0.15,3.8,0.26,5.7c0.08,1.45,0.16,2.87,0.3,4.39c0.1,1.53,0.24,3.01,0.34,4.55
						C435.99,724.9,438.64,740.27,439.38,741.97z"/>
					<path class="st1" d="M433.58,691.36c15.6,26.1,40.27,33.17,51.33,35.01l0.99-36.83l-46.65-18.49l-6.68-2.35
						C432.57,668.71,432.96,678.8,433.58,691.36z"/>
				</g>
				<g>
					<path class="st8" d="M529,632.63c9.24,63.99-28.04,76.75-41.84,78.73c-12.53,1.8-55.41,6.32-71.22-56.38
						c-15.8-62.69,11.03-87.22,39.46-92.84C483.84,556.52,519.76,568.64,529,632.63z"/>
					<g>
						<path class="st1" d="M512.14,617.26c-1.53,0.04-2.94-0.17-4.46-0.28c-1.71-0.13-3.08-0.05-4.49-1.16
							c-0.76-0.59-0.91-1.99-0.4-2.78c1.18-1.83,3.31-2.2,5.37-2.13c2.24,0.08,3.95,0.71,5.63,2.18
							C515.43,614.52,514.16,617.21,512.14,617.26z"/>
						<path class="st1" d="M469.04,625.19c1.48-0.39,2.77-1,4.19-1.54c1.6-0.61,2.94-0.93,3.98-2.39c0.55-0.78,0.3-2.17-0.41-2.78
							c-1.65-1.42-3.8-1.17-5.75-0.51c-2.13,0.71-3.58,1.8-4.78,3.69C465.11,623.5,467.09,625.71,469.04,625.19z"/>
						<g>
							<g>
								<path class="st1" d="M482.1,639.48c-0.06-0.16-0.3,0.26-0.27,0.44c0.87,4.32,1.14,9.41-2.54,11.51
									c-0.11,0.07-0.06,0.28,0.08,0.24C484.05,650.18,483.62,643.43,482.1,639.48z"/>
								<path class="st1" d="M477.46,635.6c-7.07,0.65-5.25,14.75,1.3,14.14C485.21,649.15,483.38,635.05,477.46,635.6z"/>
							</g>
							<path class="st1" d="M474.79,636.7c-1.13,0.96-2.15,2.52-3.62,2.86c-1.7,0.39-3.18-0.92-4.49-2.19
								c-0.14-0.13-0.24,0.01-0.22,0.19c0.31,2.71,1.71,5.34,4.65,5.37c2.69,0.03,4.28-2.61,4.6-5.41
								C475.77,637,475.24,636.32,474.79,636.7z"/>
						</g>
						<g>
							<g>
								<path class="st1" d="M506.02,634.44c0.01-0.17,0.37,0.16,0.38,0.35c0.39,4.39,1.58,9.35,5.71,10.32
									c0.13,0.03,0.14,0.25-0.01,0.25C507.2,645.25,505.69,638.66,506.02,634.44z"/>
								<path class="st1" d="M509.37,629.4c6.97-1.39,9.23,12.64,2.77,13.93C505.8,644.59,503.53,630.56,509.37,629.4z"/>
							</g>
							<path class="st1" d="M512.45,629.85c1.23,0.57,2.54,1.74,3.88,1.61c1.55-0.15,2.44-1.85,3.19-3.46
								c0.08-0.17,0.21-0.07,0.24,0.12c0.51,2.67,0.07,5.61-2.42,6.54c-2.27,0.85-4.37-1.17-5.44-3.74
								C511.69,630.44,511.95,629.62,512.45,629.85z"/>
						</g>
						<path class="st1" d="M485.89,674.91c1.14,0.94,2.3,2.27,3.91,2.27c1.54,0,3.27-0.84,4.62-1.5c0.13-0.07,0.29,0.07,0.21,0.21
							c-1,1.78-3.31,3.03-5.37,2.85c-2.01-0.18-3.14-1.82-3.77-3.59C485.39,674.89,485.72,674.77,485.89,674.91z"/>
						<g>
							<path class="st1" d="M501.89,656.58c0,0,1.82,6.38,2.25,9.45c0.04,0.29-0.68,0.53-1.72,0.74c-0.05,0.02-0.07,0.05-0.12,0.02
								c-5.3,1.61-11.03,0.51-14.95-3.45c-0.26-0.27,0.09-0.64,0.4-0.49c4.47,2.4,9.05,2.54,13.87,1.94c0.1-0.88-3.48-10.83-3-10.93
								c1.66-0.38,5.13,0.3,7.2,0.6c-3.4-13.41-8.93-26.16-12.12-39.56c-0.1-0.48,0.57-0.72,0.77-0.31
								c6.74,12.96,10.99,28.3,14.86,42.05C509.84,658.34,503.19,656.93,501.89,656.58z"/>
						</g>
					</g>
					<path class="st1" d="M415.9,649.75c15.19-1.04,13.21-24.96,13.21-24.96s17.09-2.89,16.21-30.77c0,0,9.58,16.13,33.18,17.74
						c4.99,0.34-12.55-11.18-12.55-11.18s21.23,16.42,57.52,6.75c2.57-0.68-3.43-43.07-33.34-54.08
						c-29.91-11.01-57.92,2.51-74.38,22.11c0,0-20.41,11.4-21.23,31.63C393.68,627.21,409.99,650.16,415.9,649.75z"/>
					<g>
						<path class="st3" d="M473.5,664.38c-9.28,0.54-18.12-5.24-21.05-14.49c-3.47-10.95,2.61-22.67,13.55-26.15
							c10.95-3.47,22.67,2.61,26.15,13.55l0,0c3.47,10.94-2.61,22.67-13.55,26.15C476.91,663.97,475.2,664.28,473.5,664.38z
							 M471.25,625.58c-1.47,0.08-2.95,0.35-4.41,0.82c-9.48,3.01-14.75,13.17-11.74,22.65c3.01,9.48,13.18,14.76,22.65,11.74
							c9.48-3.01,14.75-13.17,11.74-22.65C486.95,630.12,479.29,625.11,471.25,625.58z"/>
						<path class="st3" d="M520.52,655.82c-7.95,0.46-15.64-7.27-17.53-17.97c-0.95-5.4-0.31-10.76,1.8-15.1
							c2.18-4.49,5.68-7.37,9.84-8.1c4.18-0.75,8.43,0.77,12.03,4.24c3.47,3.35,5.91,8.17,6.86,13.57
							c1.99,11.31-3.23,21.72-11.64,23.2C521.43,655.74,520.97,655.8,520.52,655.82z M516.17,617.27c-0.35,0.02-0.7,0.06-1.05,0.12
							c-3.26,0.58-6.04,2.91-7.83,6.58c-1.86,3.82-2.41,8.57-1.56,13.4c1.73,9.8,8.74,16.78,15.67,15.55
							c6.91-1.22,11.12-10.18,9.39-19.98c-0.85-4.82-3-9.1-6.06-12.05C522.1,618.36,519.1,617.1,516.17,617.27z"/>
						<path class="st3" d="M491.88,639.79l-2.13-1.79c2.65-3.16,9.22-7.94,15.17-3.47l-1.67,2.22
							C497.92,632.74,492.12,639.5,491.88,639.79z"/>
						<path class="st3" d="M401.44,661.2l-2.66-0.83c0.39-1.24,3.95-12.17,9.9-14.24c5.56-1.92,42.92-4.97,44.51-5.1l0.22,2.78
							c-10.71,0.86-39.52,3.45-43.81,4.95C405.67,650.13,402.38,658.2,401.44,661.2z"/>
					</g>
					<g>
						<g>
							<path class="st8" d="M426.82,658.43c0,0-15.24-19.35-24.09-13.8c-8.86,5.54,3.4,34.15,14.36,37.53
								c10.96,3.38,14.29-6.7,14.29-6.7L426.82,658.43z"/>
							<path class="st1" d="M406.44,652.74c-0.17-0.01-0.19,0.24-0.04,0.29c7.7,2.62,12.06,9.37,15.25,16.45
								c-2.4-2.66-5.53-4.01-9.11-1.13c-0.19,0.15,0.02,0.45,0.23,0.39c3.05-0.84,5.3-0.43,7.52,1.92c1.57,1.66,2.71,3.82,3.88,5.78
								c0.39,0.65,1.58,0.22,1.28-0.54c-0.02-0.06-0.05-0.11-0.07-0.17C425.02,666.12,416.8,653.12,406.44,652.74z"/>
						</g>
					</g>
				</g>
				<g>
					<path class="st1" d="M417.12,584.02c9.12-7.25,28.62-58.37-15.46-80.89c-43.42-22.18-92.95,34.86-60.14,74.14
						C363.57,603.66,397.76,599.42,417.12,584.02z"/>
				</g>
			</g>
		</g>
	</g>
</g>
<g>
	<g>
		<g>
			<path class="st3" d="M1885.48,1614.83c34.72-71.37,95.48-108.01,163.95-87.76c68.47,20.25,79.08,115.73,27.97,139.84
				c-51.11,24.11-102.23-46.29-129.23-60.76C1921.17,1591.69,1885.48,1614.83,1885.48,1614.83z"/>
			<path class="st1" d="M1851.87,1804.8c0.18-8.6,0.51-17.2,0.81-25.8c0.61-17.18,1.19-34.35,1.83-51.53
				c1.17-31.41,4.55-62.26,17.56-91.22c11.67-25.97,30.59-48.72,55.08-63.47c9.12-5.5,18.87-9.71,28.95-12.49
				c8.47-9.48,21.71-15.63,33.79-18.56c15.83-3.85,32.11-3.01,48.17-1.21c0.58,0.06,0.56,0.98-0.02,0.91
				c-15.2-1.86-30.79-0.94-45.57,3.24c-6.33,1.79-12.52,4.09-18.36,7.14c-3.78,1.97-7.23,4.3-10.62,6.73
				c13.69-2.76,27.86-2.84,41.85,0.4c4.98,1.15,9.8,2.85,14.52,4.79c3.67-0.95,7.77-1.05,11.41-0.97c4.99,0.11,9.99,0.91,14.83,2.11
				c9.98,2.49,19.3,7.22,28.17,12.3c0.51,0.29,0.03,1.05-0.48,0.77c-8.64-4.75-17.88-8.18-27.49-10.36
				c-4.66-1.06-9.36-1.75-14.13-2.07c-2.63-0.18-5.25-0.05-7.87,0.06c19.26,9.09,35.46,24.54,44.28,44.12
				c0.24,0.53-0.56,0.97-0.79,0.44c-10.27-23.21-32.17-39.05-56.42-45.23c-1.51-0.39-3.05-0.59-4.58-0.89
				c0.53,2.21,0.45,4.76,0.73,6.9c0.46,3.47,1.04,6.93,1.74,10.36c1.44,7.05,3.28,14.07,5.57,20.89c2.33,6.92,5.06,13.71,8.3,20.26
				c3.3,6.68,6.76,13.81,11.57,19.54c0.42,0.5-0.37,1.09-0.73,0.53c-4.11-6.45-8.9-12.38-12.65-19.08
				c-3.59-6.4-6.72-13.05-9.29-19.92c-2.6-6.97-4.68-14.09-6.1-21.39c-0.75-3.84-1.35-7.72-1.8-11.61
				c-0.26-2.25-0.79-4.79-0.43-7.08c-8.03-1.27-16.21-1.34-24.32-0.5c3.04,17.02,6.3,34.76,15.84,49.55
				c0.32,0.49-0.52,0.96-0.79,0.44c-4.26-8.01-8.61-15.81-11.76-24.35c-2.98-8.07-5.28-16.73-5.87-25.36
				c-14.12,1.84-27.92,6.58-40.2,13.48c-23.7,13.33-41.68,34.24-53.52,58.55c-12.86,26.4-18.02,54.81-19.84,83.92
				c-2.28,36.47-2.75,73.18-6.4,109.55c-0.24,2.38-4,3.17-4.46,0.49C1851,1821.17,1851.7,1812.92,1851.87,1804.8z"/>
			<path class="st1" d="M1932.11,1567.06c1.93-2.84,5.27-5.11,7.89-7.28c2.84-2.36,5.76-4.63,8.82-6.7
				c6.08-4.13,12.63-7.22,19.72-9.15c0.56-0.15,0.79,0.76,0.22,0.88c-7.14,1.54-13.62,5.28-19.47,9.57c-2.9,2.13-5.69,4.41-8.4,6.78
				c-2.52,2.2-5.02,5.17-7.96,6.77C1932.41,1568.2,1931.76,1567.57,1932.11,1567.06z"/>
			<path class="st1" d="M2042.92,1592.92c5.58,6.78,11.24,13.63,15.92,21.07c4.7,7.47,8.76,15.2,11.84,23.48
				c0.09,0.25-0.3,0.38-0.42,0.16c-8.42-15.14-16.88-30.74-28.01-44.09C2041.9,1593.1,2042.55,1592.47,2042.92,1592.92z"/>
			<path class="st1" d="M1968.23,1585.86c0.75,4.46,2.04,8.8,3.92,12.91c1.83,3.99,4.19,7.79,6.61,11.44
				c0.16,0.24-0.21,0.49-0.4,0.29c-6.17-6.57-9.62-15.61-11.01-24.43C1967.26,1585.51,1968.13,1585.28,1968.23,1585.86z"/>
		</g>
		<g>
			<path class="st3" d="M1856.72,1616.59c0,0-49.16-61.78-144.05-39.89c-90.19,20.81-131.81,186.19-40.67,205.98
				c91.13,19.79,75.07-133.25,108.28-159.22C1804.64,1604.41,1839.69,1608.5,1856.72,1616.59z"/>
			<path class="st4" d="M1856.72,1616.59c0,0-49.16-61.78-144.05-39.89c-90.19,20.81-131.81,186.19-40.67,205.98
				c91.13,19.79,75.07-133.25,108.28-159.22C1804.64,1604.41,1839.69,1608.5,1856.72,1616.59z"/>
			<path class="st1" d="M1639.39,1667.02c6.22-5.36,12.66-10.5,19.55-14.98c6.44-4.19,13.45-8.13,20.84-10.41
				c3.72-5.58,7.77-10.96,12.37-15.91c8.47-9.13,18.14-16.77,28.67-22.84c-0.94-0.06-1.88-0.16-2.83-0.19
				c-5.04-0.17-10.05-0.2-15.08,0.15c-10.19,0.7-19.97,3.07-29.28,7.29c-0.53,0.24-0.92-0.59-0.39-0.82
				c9.35-3.97,19.22-7.07,29.24-8.81c4.86-0.84,9.88-1.32,14.82-1.27c2.66,0.02,5.33,0.2,7.97,0.46c0.49,0.05,1.01,0.08,1.52,0.12
				c8.68-4.39,17.85-7.74,27.35-10.06c-0.88-0.24-1.75-0.51-2.64-0.72c-4.64-1.06-9.34-1.75-14.06-2.31
				c-9.52-1.12-18.9-0.89-28.39,0.44c-0.58,0.08-0.74-0.82-0.16-0.89c9.47-1.17,19.17-1.53,28.7-1.16
				c7.81,0.3,16.11,1.18,23.87,3.09c5.68-1.03,11.45-1.73,17.3-1.97c33.08-1.4,69.15,10.97,89.52,38.16
				c20.43,27.28,24.36,63.53,27.96,96.37c5.01,45.71,7.31,92.05,3.63,137.92c-0.22,2.71-4.02,2.22-4.11-0.36
				c-1.25-38.99-2.62-78-6.35-116.86c-1.73-17.99-3.65-36.05-6.64-53.88c-2.56-15.24-6.2-30.45-13.08-44.37
				c-7.17-14.52-18.05-26.22-32.02-34.43c-13.77-8.09-29.51-12.58-45.36-13.95c-14.4-1.25-28.79,0.25-42.57,3.99
				c0.61,2.73,0.48,5.59,0.24,8.4c-0.3,3.52-1.01,7-2.08,10.37c-1.01,3.18-2.38,6.26-3.97,9.2c-1.76,3.26-3.97,6.16-5.92,9.29
				c-0.31,0.49-1.1-0.07-0.74-0.52c4.09-5.14,6.18-12.33,7.36-18.7c0.59-3.19,0.97-6.43,1.14-9.67c0.13-2.44-0.09-4.91,0.02-7.34
				c-14.96,4.59-29.06,12-41.42,21.87c-2.31,1.85-4.53,3.8-6.71,5.81c3.24,2.66,5.86,6.66,8.04,9.88c3.24,4.78,6.09,9.75,8.44,15.03
				c4.64,10.43,7.09,21.76,8.77,33.01c0.09,0.58-0.81,0.74-0.89,0.16c-1.53-11.11-5.61-21.39-10.8-31.28
				c-2.51-4.79-5.3-9.47-8.41-13.9c-1.6-2.28-3.26-4.54-4.98-6.73c-0.93-1.18-1.95-2.37-2.83-3.64
				c-11.11,10.87-20.3,23.79-26.91,37.9c0.06,0.03,0.12,0.03,0.18,0.08c4.69,4.36,8.01,10.44,11.12,15.98
				c3.41,6.08,6.36,12.49,8.89,18.99c4.87,12.55,8.08,25.65,11.32,38.69c0.14,0.56-0.78,0.74-0.89,0.16
				c-2.62-13.3-7.65-25.9-13.46-38.11c-2.83-5.95-5.82-11.8-8.98-17.58c-2.97-5.44-6.6-10.82-8.91-16.59
				c-6.26,13.86-10.07,28.79-10.83,43.95c-0.03,0.58-0.95,0.5-0.9-0.08c1.89-23.64,8.91-47.17,21.3-67.45
				c-5.8,2.47-11.63,4.86-17.21,7.87c-7.11,3.83-13.79,8.38-19.73,13.86C1639.54,1668.11,1638.94,1667.4,1639.39,1667.02z"/>
			<path class="st1" d="M1708.97,1670.52c2.85,9.37,6.43,18.46,9,27.93c2.47,9.09,4.18,18.45,4.19,27.9c0,0.26-0.41,0.27-0.45,0.02
				c-2.78-18.75-6.9-37.79-13.59-55.57C1707.89,1670.19,1708.78,1669.89,1708.97,1670.52z"/>
			<path class="st1" d="M1648.87,1647.28c3.78-3.56,7.91-6.65,12.56-8.98c4.63-2.31,9.62-3.66,14.55-5.15
				c0.55-0.17,0.74,0.76,0.16,0.89c-4.95,1.11-9.54,3.4-14,5.76c-4.45,2.36-8.83,4.94-12.9,7.92
				C1648.94,1647.96,1648.59,1647.54,1648.87,1647.28z"/>
		</g>
		<g>
			<path class="st3" d="M1809.99,1534.07c0,0-9.07-111-91.59-146.98c-68.91-30.04-108.36,47.39-59.64,94.79
				C1698.16,1520.22,1761.36,1502.92,1809.99,1534.07z"/>
			<path class="st4" d="M1809.99,1534.07c0,0-9.07-111-91.59-146.98c-68.91-30.04-108.36,47.39-59.64,94.79
				C1698.16,1520.22,1761.36,1502.92,1809.99,1534.07z"/>
			<path class="st1" d="M1674.01,1408.59c12.5,5.33,24.88,10.62,36.7,17.38c9.9,5.66,19.37,12.06,28.49,18.91
				c-1.37-2.81-2.56-5.74-3.94-8.49c-2.16-4.29-4.46-8.48-7.01-12.55c-5.24-8.36-11.02-16.18-18.18-23.01
				c-0.42-0.4,0.25-1.04,0.66-0.63c6.81,6.98,13.53,14.27,19.13,22.27c2.83,4.04,5.48,8.23,7.84,12.56
				c2.15,3.95,4.59,8.33,5.54,12.78c0.3,0.23,0.62,0.43,0.91,0.66c14.48,11.41,27.55,24.47,39.41,38.56
				c-0.23-1.09-0.46-2.18-0.74-3.18c-1.55-5.42-3.22-10.78-5-16.13c-3.75-11.24-8.37-22.46-14.91-32.37
				c-0.32-0.48,0.49-0.94,0.79-0.44c6.25,10.29,12.5,20.49,17.27,31.57c2.29,5.31,4.21,10.82,5.7,16.41
				c0.89,3.32,2.32,7.34,2.68,11.15c3.6,4.55,7.13,9.15,10.46,13.89c35.42,50.43,53.21,111.44,57.47,172.47
				c1.27,18.21,1.53,36.44,0.92,54.68c-0.61,18.25-1.28,36.93-4.84,54.88c-0.23,1.15-2.02,0.8-2-0.32
				c0.41-16.04,2.07-32.01,2.38-48.06c0.31-16.07-0.25-32.17-1.55-48.19c-2.58-31.91-8.64-63.83-18-94.45
				c-9.57-31.31-23.7-61.46-41.96-88.79c-3.48-0.69-6.92-1.63-10.34-2.51c-4.12-1.06-8.25-2.12-12.34-3.26
				c-7.88-2.21-15.7-4.71-23.01-8.44c-0.51-0.26-0.03-1.07,0.48-0.77c7.2,4.21,15.2,6.43,23.33,8.05
				c6.46,1.29,13.17,2.13,19.64,3.61c-5.98-8.72-12.36-17.16-19.19-25.22c-15.68,1.53-31.65,0.14-46.95-3.5
				c-8.15-1.94-16.21-4.47-24.03-7.48c-8.27-3.18-16.09-7.28-24.25-10.69c-0.61-0.26-0.19-1.16,0.37-0.82
				c14,8.5,31.59,12.86,47.59,15.58c14.77,2.51,29.59,3.42,44.52,3.68c-5.86-6.72-11.92-13.28-18.38-19.43
				c-21.67-20.64-47.42-39.61-75.97-49.5C1673.19,1409.26,1673.48,1408.36,1674.01,1408.59z"/>
			<path class="st1" d="M1741.17,1408.93c3.69,4.68,7.14,9.63,10.12,14.8c3.16,5.48,5.45,11.17,7.28,17.21
				c0.06,0.2-0.24,0.32-0.33,0.13c-2.75-5.44-5.08-11.09-7.86-16.51c-2.76-5.37-6-10.36-9.85-15
				C1740.14,1409.1,1740.81,1408.47,1741.17,1408.93z"/>
			<path class="st1" d="M1664.44,1445.88c5.35,3.1,11.05,5.17,16.92,7.06c5.66,1.83,11.4,3.47,17.23,4.63
				c0.27,0.05,0.2,0.52-0.08,0.49c-6.07-0.72-12.06-1.89-17.84-3.91c-5.75-2.01-11.26-4.81-16.71-7.5
				C1663.44,1446.4,1663.92,1445.59,1664.44,1445.88z"/>
		</g>
		<g>
			<path class="st3" d="M1874.14,1514.09c0.52,4.79,12.48-40.3,82.26-80.33c63.37-36.36,139-130.92,76.87-190.66
				C1983.12,1194.88,1851,1300,1874.14,1514.09z"/>
			<path class="st1" d="M1826.11,1772.63c1.04-46.92,4.71-93.79,11.07-140.3c5.85-42.76,15.06-84.85,29.48-125.58
				c5.19-14.67,11.12-29.11,17.56-43.33c-0.67-5.41,0.04-11.37,0.29-16.6c0.34-7.1,0.98-14.2,1.64-21.28
				c0.65-7.08,1.37-14.17,2.22-21.23c0.84-7.01,2.34-14.11,2.63-21.16c0.03-0.65,1.04-0.51,0.89,0.14
				c-1.7,7.24-1.93,15.06-2.5,22.46c-0.53,6.84-0.92,13.69-1.13,20.55c-0.21,6.87-0.18,13.73-0.18,20.6c0,2.48,0.13,5.11,0.23,7.75
				c6.56-13.87,13.6-27.51,21.21-40.81c-4.72-28.93,1.41-59.17,7.32-87.45c0.12-0.57,0.99-0.31,0.87,0.26
				c-3.08,14.73-4.26,29.81-4.6,44.84c-0.27,11.88,0.29,23.76,0.33,35.63c1.68-2.84,3.34-5.7,5.06-8.51
				c9.04-14.78,18.71-29.25,28.98-43.31c-1.11-6.76-0.31-13.92,0.68-20.6c1.12-7.6,2.85-15.18,5.06-22.54
				c2.23-7.4,4.78-14.64,7.72-21.78c3.02-7.34,7.05-14.28,9.96-21.64c0.24-0.61,1.16-0.19,0.82,0.37
				c-3.96,6.62-6.38,14.57-8.74,21.89c-2.29,7.1-4.24,14.39-5.71,21.71c-1.47,7.35-2.68,14.71-3.71,22.13
				c-0.68,4.91-1.11,10-1.96,14.96c15.01-20.04,31.25-39.17,48.86-56.86c0.42-0.42,1,0.23,0.62,0.66
				c-26.49,30.09-50.46,62-70.94,96.5c-0.76,1.29-1.49,2.59-2.24,3.89c3.84-2.41,8.25-4.32,11.87-6.33
				c6.76-3.76,13.54-7.49,20.35-11.17c6.61-3.57,13.2-7.18,19.77-10.82c3.38-1.88,6.72-3.83,10.16-5.59c3.91-2,8.31-3.91,11.82-6.55
				c0.53-0.4,1.1,0.41,0.53,0.72c-6.71,3.69-12.65,9.18-19.13,13.31c-6.54,4.17-13.15,8.17-19.92,11.95
				c-12.4,6.92-25.88,11.9-38.09,19.05c-8.48,14.82-16.27,30.04-23.48,45.53c7.41-4.75,14.98-9.26,22.66-13.57
				c4.95-2.77,9.9-5.5,14.92-8.14c4.84-2.55,9.87-4.91,14.05-8.49c0.44-0.38,1.04,0.25,0.63,0.66c-7.9,7.73-17.33,13.11-26.81,18.65
				c-8.96,5.24-18.02,10.29-27.34,14.86c-7.46,16.34-14.22,33.01-20.19,49.93c-29.37,83.16-40.16,171.44-45.31,259.11
				c-1.54,26.14-2.33,52.26-2.66,78.44c-0.33,26.15,1.05,52.25,1,78.38c0,0.77-1.28,0.95-1.38,0.15c-3.14-23.18-3.69-46.75-4.7-70.1
				C1825.6,1820.26,1825.59,1796.39,1826.11,1772.63z"/>
			<path class="st1" d="M1952.88,1396.16c12.82-5.26,25.03-12.36,37.08-19.18c12.12-6.86,23.88-14.24,35.21-22.35
				c0.19-0.13,0.42,0.18,0.24,0.33c-10.72,8.59-21.99,16.62-33.81,23.64c-12.27,7.29-25.23,12.66-38.28,18.35
				C1952.79,1397.18,1952.35,1396.38,1952.88,1396.16z"/>
			<path class="st1" d="M1932.67,1302.15c1.03-4.06,2.31-8.04,3.68-12c-0.15-0.1-0.26-0.25-0.18-0.46c0.88-2.25,1.81-4.48,2.72-6.71
				c0.11-0.3,0.22-0.59,0.33-0.8c0.17-0.43,0.35-0.85,0.52-1.28c0.06-0.14,0.28-0.08,0.23,0.07c-0.25,0.77-0.44,1.55-0.68,2.32
				c-0.12,0.44-0.2,0.84-0.38,1.28c-4.75,15.49-7.9,31.37-10.34,47.38c-0.08,0.5-0.85,0.52-0.82-0.02
				C1928.36,1321.84,1930.18,1311.92,1932.67,1302.15z"/>
		</g>
	</g>
	<g>
		<g>
			<polygon class="st11" points="1752.39,1789.49 1757.37,1848.51 1772.61,2028.49 1935.88,2028.49 1951.12,1848.51 
				1956.09,1789.49 			"/>
			<polygon class="st1" points="1752.39,1789.49 1757.37,1848.51 1951.12,1848.51 1956.09,1789.49 			"/>
		</g>
		
			<rect x="1736.37" y="1765.81" transform="matrix(-1 -1.224647e-16 1.224647e-16 -1 3708.4854 3588.238)" class="st11" width="235.74" height="56.62"/>
	</g>
</g>
</svg>
